<?xml version="1.0" encoding="UTF-8" standalone="no"?><!DOCTYPE svg PUBLIC "-//W3C//DTD SVG 1.1//EN" "http://www.w3.org/Graphics/SVG/1.1/DTD/svg11.dtd"><svg width="256px" height="256px" version="1.1" xmlns="http://www.w3.org/2000/svg" xmlns:xlink="http://www.w3.org/1999/xlink" xml:space="preserve" xmlns:serif="http://www.serif.com/" style="fill-rule:evenodd;clip-rule:evenodd;stroke-linejoin:round;stroke-miterlimit:2;"><path d="M256,60L256,196C256,229.115 229.115,256 196,256L60,256C26.885,256 0,229.115 0,196L0,60C0,26.885 26.885,0 60,0L196,0C229.115,0 256,26.885 256,60Z" style="fill:rgb(36,41,56);"/><g transform="matrix(1.5625,0,0,1.5625,128,128)"><g transform="matrix(1,0,0,1,-64,-64)"><path d="M122.097,35.53L126,25.422L125.83,24.796L87.217,34.969C91.334,29.014 89.92,24.238 89.92,24.238C89.92,24.238 77.589,32.112 68.264,31.906C58.939,31.7 55.933,29.211 41.635,33.773C27.337,38.33 23.296,52.322 19.151,55.328C15.006,58.334 2,68.123 2,68.123L2.028,68.297L13.753,64.564C13.753,64.564 10.537,67.594 3.705,76.802L3.386,76.507L3.398,76.572C3.398,76.572 8.889,84.964 14.278,83.412C14.819,83.254 15.429,82.996 16.096,82.656C18.266,83.864 21.098,85.052 24.225,85.379C24.225,85.379 22.108,82.918 20.342,80.119C20.819,79.812 21.308,79.493 21.805,79.17L21.575,79.332L26.04,80.972L25.547,76.774C25.563,76.766 25.575,76.754 25.591,76.746L29.979,78.358L29.434,74.54C29.982,74.253 30.537,73.979 31.099,73.72L35.673,56.42L54.586,43.519L53.081,47.3C49.247,56.73 42.047,58.956 42.047,58.956L39.041,60.095C36.807,62.737 35.865,63.388 35.098,72.256C36.9,71.803 38.621,71.694 40.181,72.115C48.262,74.293 51.061,84.03 48.884,86.725C48.339,87.4 47.042,88.551 45.405,89.905L42.124,89.905L42.08,92.564C41.967,92.652 41.855,92.74 41.745,92.827L38.408,92.827L38.368,95.421C38.073,95.647 37.778,95.865 37.495,96.08C34.36,96.145 30.388,93.409 30.388,93.409C30.388,95.898 32.461,99.728 32.461,99.728C32.461,99.728 32.598,99.663 32.829,99.55C32.627,99.699 32.514,99.78 32.514,99.78C32.514,99.78 40.906,105.376 46.19,103.303C50.889,101.461 63.054,91.869 73.555,87.328L105.332,78.957L109.522,68.101L85.305,74.481L85.305,64.732L113.72,57.245L117.91,46.389L85.313,54.979L85.313,45.226L122.097,35.53ZM64.426,56.196L71.965,54.208L72.066,54.584L69.715,60.677L61.901,62.738L64.426,56.196ZM67.028,69.238L59.214,71.299L61.739,64.754L69.278,62.766L69.379,63.142L67.028,69.238ZM77.21,67.052L69.396,69.113L71.921,62.568L79.46,60.58L79.561,60.956L77.21,67.052Z" style="fill:white;fill-rule:nonzero;"/></g></g></svg>