
<svg width="100%" height="100%" viewBox="0 0 256 256" version="1.1" xmlns="http://www.w3.org/2000/svg" xmlns:xlink="http://www.w3.org/1999/xlink" xml:space="preserve" xmlns:serif="http://www.serif.com/" style="fill-rule:evenodd;clip-rule:evenodd;stroke-linejoin:round;stroke-miterlimit:2;">
    <path d="M256,60L256,196C256,229.115 229.115,256 196,256L60,256C26.885,256 0,229.115 0,196L0,60C0,26.885 26.885,0 60,0L196,0C229.115,0 256,26.885 256,60Z" style="fill:rgb(36,41,56);"/>
    <g>
        <clipPath id="_clip1">
            <rect x="38" y="68.234" width="180" height="119.531"/>
        </clipPath>
        <g clip-path="url(#_clip1)">
            <path d="M214.051,68.237C211.269,68.326 212.148,69.128 206.137,70.607C200.068,72.101 192.652,71.643 186.116,74.384C166.604,82.568 162.689,110.537 144.95,120.555C131.69,128.045 118.314,128.642 106.287,132.41C98.383,134.889 89.737,139.971 82.576,146.142C77.018,150.934 76.873,155.148 71.065,161.157C64.852,167.586 46.375,161.266 38.001,171.105C40.699,173.832 41.882,174.597 47.198,173.889C46.097,175.974 39.609,177.732 40.879,180.801C42.215,184.03 57.902,186.219 72.16,177.61C78.8,173.601 84.09,167.823 94.432,166.443C107.815,164.659 123.232,167.587 138.726,169.822C136.428,176.672 131.816,181.227 128.121,186.682C126.977,187.915 130.419,188.052 134.346,187.308C141.41,185.561 146.501,184.154 151.833,181.052C158.382,177.239 159.375,167.464 167.411,165.349C171.889,172.23 184.066,173.857 191.622,168.351C184.992,166.474 183.159,152.361 185.397,146.142C187.517,140.255 189.612,130.838 191.747,123.056C194.039,114.699 194.885,104.165 197.659,99.908C201.833,93.503 206.445,91.304 210.449,87.692C214.453,84.08 218.118,80.565 217.998,72.301C217.959,69.64 216.583,68.156 214.051,68.237" style="fill:rgb(0,43,100);fill-rule:nonzero;"/>
            <path d="M208.089,73.134C208.756,75.406 209.799,76.45 214.308,76.867C213.649,82.583 209.836,85.711 205.56,88.71C201.797,91.349 197.675,93.89 195.026,98.012C192.312,102.234 190.589,116.686 186.382,130.958C182.745,143.29 177.253,155.483 167.661,160.826C166.659,158.304 167.789,153.648 165.796,152.119C164.506,155.797 163.049,159.306 161.341,162.567C155.713,173.325 147.38,181.378 133.455,183.838C140.062,174.897 146.38,165.664 146.517,150.255C141.867,151.26 141.966,162.245 137.188,165.181C134.125,165.514 131.022,165.512 127.9,165.324C115.075,164.555 101.918,160.701 89.921,164.551C81.752,167.173 75.071,173.358 68.154,176.358C60.024,179.884 53.866,181.334 43.743,179.884C42.457,178.152 51.153,175.918 50.632,172.158C46.67,171.72 44.369,172.68 40.925,171.115C41.305,170.414 41.864,169.83 42.568,169.345C48.881,164.975 66.812,168.313 71.61,163.6C74.572,160.694 76.516,157.652 78.528,154.695C80.479,151.826 82.496,149.036 85.569,146.522C86.755,145.556 87.982,144.642 89.246,143.781C94.483,140.197 100.961,136.947 107.337,134.706C116.021,131.653 124.822,131.401 134.08,127.865C139.799,125.679 146.018,122.98 151.086,119.203C152.28,118.318 153.414,117.355 154.481,116.321C168.956,102.211 171.825,77.32 194.408,75C197.139,74.72 199.374,74.81 201.41,74.749C203.755,74.679 205.831,74.407 208.088,73.134M180.558,152.798C180.827,157.111 183.332,165.669 185.542,167.749C181.212,168.802 173.754,167.062 171.841,164.008C172.824,159.599 177.94,155.568 180.558,152.797" style="fill:rgb(196,154,108);fill-rule:nonzero;"/>
            <path d="M209.716,77.964C208.846,79.79 207.179,82.143 207.179,86.791C207.172,87.589 206.573,88.135 206.563,86.906C206.608,82.364 207.81,80.4 209.087,77.82C209.68,76.762 210.038,77.198 209.716,77.965M208.839,77.277C207.812,79.019 205.34,82.196 204.931,86.826C204.856,87.621 204.21,88.111 204.308,86.884C204.754,82.364 206.73,79.536 208.229,77.076C208.909,76.076 209.229,76.542 208.839,77.276M208.04,76.365C206.87,78.014 203.065,81.83 202.269,86.41C202.126,87.193 201.441,87.631 201.643,86.416C202.466,81.948 205.746,78.437 207.447,76.115C208.209,75.173 208.488,75.665 208.04,76.365M207.327,75.348L206.942,75.758C205.24,77.582 201.287,82.031 199.971,86.104C199.718,86.86 198.979,87.197 199.349,86.022C200.792,81.715 204.765,77.075 206.775,75.016C207.663,74.192 207.869,74.718 207.327,75.348M186.901,84.569C187.783,80.782 190.728,79.056 195.812,79.477C197.039,85.13 190.173,87.41 186.901,84.569" style="fill:rgb(0,43,100);fill-rule:nonzero;"/>
        </g>
    </g>
</svg>
